<mxfile host="app.diagrams.net" agent="Mozilla/5.0 (Windows NT 10.0; Win64; x64) AppleWebKit/537.36 (KHTML, like Gecko) Chrome/138.0.0.0 Safari/537.36 OPR/122.0.0.0" version="28.2.4">
  <diagram name="Página-1" id="wtWJViPDNG4fGcN8PfTy">
    <mxGraphModel dx="1384" dy="788" grid="1" gridSize="10" guides="1" tooltips="1" connect="1" arrows="1" fold="1" page="1" pageScale="1" pageWidth="827" pageHeight="1169" background="none" math="0" shadow="0">
      <root>
        <mxCell id="0" />
        <mxCell id="1" parent="0" />
        <mxCell id="bdSFsUya2t5fOZhDIF2p-6" value="" style="edgeStyle=orthogonalEdgeStyle;rounded=0;orthogonalLoop=1;jettySize=auto;html=1;" edge="1" parent="1" source="bdSFsUya2t5fOZhDIF2p-1" target="bdSFsUya2t5fOZhDIF2p-3">
          <mxGeometry relative="1" as="geometry" />
        </mxCell>
        <mxCell id="bdSFsUya2t5fOZhDIF2p-1" value="ínicio" style="ellipse;whiteSpace=wrap;html=1;" vertex="1" parent="1">
          <mxGeometry x="350" y="50" width="120" height="80" as="geometry" />
        </mxCell>
        <mxCell id="bdSFsUya2t5fOZhDIF2p-2" value="Fim" style="ellipse;whiteSpace=wrap;html=1;" vertex="1" parent="1">
          <mxGeometry x="320" y="680" width="120" height="80" as="geometry" />
        </mxCell>
        <mxCell id="bdSFsUya2t5fOZhDIF2p-7" value="" style="edgeStyle=orthogonalEdgeStyle;rounded=0;orthogonalLoop=1;jettySize=auto;html=1;" edge="1" parent="1" source="bdSFsUya2t5fOZhDIF2p-3" target="bdSFsUya2t5fOZhDIF2p-5">
          <mxGeometry relative="1" as="geometry" />
        </mxCell>
        <mxCell id="bdSFsUya2t5fOZhDIF2p-3" value="Ler N1,N2,N3" style="shape=parallelogram;perimeter=parallelogramPerimeter;whiteSpace=wrap;html=1;fixedSize=1;" vertex="1" parent="1">
          <mxGeometry x="350" y="170" width="120" height="60" as="geometry" />
        </mxCell>
        <mxCell id="bdSFsUya2t5fOZhDIF2p-16" value="" style="edgeStyle=orthogonalEdgeStyle;rounded=0;orthogonalLoop=1;jettySize=auto;html=1;" edge="1" parent="1" source="bdSFsUya2t5fOZhDIF2p-4" target="bdSFsUya2t5fOZhDIF2p-15">
          <mxGeometry relative="1" as="geometry">
            <Array as="points">
              <mxPoint x="580" y="390" />
              <mxPoint x="354" y="390" />
            </Array>
          </mxGeometry>
        </mxCell>
        <mxCell id="bdSFsUya2t5fOZhDIF2p-17" value="Sim" style="edgeLabel;html=1;align=center;verticalAlign=middle;resizable=0;points=[];" vertex="1" connectable="0" parent="bdSFsUya2t5fOZhDIF2p-16">
          <mxGeometry x="-0.2571" y="-2" relative="1" as="geometry">
            <mxPoint as="offset" />
          </mxGeometry>
        </mxCell>
        <mxCell id="bdSFsUya2t5fOZhDIF2p-21" style="edgeStyle=orthogonalEdgeStyle;rounded=0;orthogonalLoop=1;jettySize=auto;html=1;" edge="1" parent="1" source="bdSFsUya2t5fOZhDIF2p-4">
          <mxGeometry relative="1" as="geometry">
            <mxPoint x="640" y="490" as="targetPoint" />
          </mxGeometry>
        </mxCell>
        <mxCell id="bdSFsUya2t5fOZhDIF2p-22" value="Não" style="edgeLabel;html=1;align=center;verticalAlign=middle;resizable=0;points=[];" vertex="1" connectable="0" parent="bdSFsUya2t5fOZhDIF2p-21">
          <mxGeometry x="-0.0696" relative="1" as="geometry">
            <mxPoint as="offset" />
          </mxGeometry>
        </mxCell>
        <mxCell id="bdSFsUya2t5fOZhDIF2p-4" value="N3&amp;gt;N1&lt;div&gt;e&lt;/div&gt;&lt;div&gt;N3&amp;gt;N2&lt;/div&gt;" style="rhombus;whiteSpace=wrap;html=1;" vertex="1" parent="1">
          <mxGeometry x="540" y="240" width="80" height="80" as="geometry" />
        </mxCell>
        <mxCell id="bdSFsUya2t5fOZhDIF2p-11" value="" style="edgeStyle=orthogonalEdgeStyle;rounded=0;orthogonalLoop=1;jettySize=auto;html=1;" edge="1" parent="1" source="bdSFsUya2t5fOZhDIF2p-5" target="bdSFsUya2t5fOZhDIF2p-10">
          <mxGeometry relative="1" as="geometry" />
        </mxCell>
        <mxCell id="bdSFsUya2t5fOZhDIF2p-12" value="Sim" style="edgeLabel;html=1;align=center;verticalAlign=middle;resizable=0;points=[];" vertex="1" connectable="0" parent="bdSFsUya2t5fOZhDIF2p-11">
          <mxGeometry x="-0.3429" relative="1" as="geometry">
            <mxPoint as="offset" />
          </mxGeometry>
        </mxCell>
        <mxCell id="bdSFsUya2t5fOZhDIF2p-13" value="" style="edgeStyle=orthogonalEdgeStyle;rounded=0;orthogonalLoop=1;jettySize=auto;html=1;" edge="1" parent="1" source="bdSFsUya2t5fOZhDIF2p-5" target="bdSFsUya2t5fOZhDIF2p-4">
          <mxGeometry relative="1" as="geometry" />
        </mxCell>
        <mxCell id="bdSFsUya2t5fOZhDIF2p-14" value="Não" style="edgeLabel;html=1;align=center;verticalAlign=middle;resizable=0;points=[];" vertex="1" connectable="0" parent="bdSFsUya2t5fOZhDIF2p-13">
          <mxGeometry x="-0.3" y="-4" relative="1" as="geometry">
            <mxPoint as="offset" />
          </mxGeometry>
        </mxCell>
        <mxCell id="bdSFsUya2t5fOZhDIF2p-5" value="N1&amp;gt;N3&amp;nbsp;&lt;div&gt;e&lt;/div&gt;&lt;div&gt;N1&amp;gt;N2&lt;/div&gt;" style="rhombus;whiteSpace=wrap;html=1;" vertex="1" parent="1">
          <mxGeometry x="370" y="250" width="80" height="80" as="geometry" />
        </mxCell>
        <mxCell id="bdSFsUya2t5fOZhDIF2p-24" style="edgeStyle=orthogonalEdgeStyle;rounded=0;orthogonalLoop=1;jettySize=auto;html=1;entryX=0;entryY=0.5;entryDx=0;entryDy=0;" edge="1" parent="1" source="bdSFsUya2t5fOZhDIF2p-10" target="bdSFsUya2t5fOZhDIF2p-23">
          <mxGeometry relative="1" as="geometry" />
        </mxCell>
        <mxCell id="bdSFsUya2t5fOZhDIF2p-10" value="Escrever N1" style="shape=parallelogram;perimeter=parallelogramPerimeter;whiteSpace=wrap;html=1;fixedSize=1;" vertex="1" parent="1">
          <mxGeometry x="100" y="510" width="120" height="60" as="geometry" />
        </mxCell>
        <mxCell id="bdSFsUya2t5fOZhDIF2p-25" style="edgeStyle=orthogonalEdgeStyle;rounded=0;orthogonalLoop=1;jettySize=auto;html=1;entryX=0.5;entryY=0;entryDx=0;entryDy=0;" edge="1" parent="1" source="bdSFsUya2t5fOZhDIF2p-15" target="bdSFsUya2t5fOZhDIF2p-23">
          <mxGeometry relative="1" as="geometry" />
        </mxCell>
        <mxCell id="bdSFsUya2t5fOZhDIF2p-15" value="Escrever N3" style="shape=parallelogram;perimeter=parallelogramPerimeter;whiteSpace=wrap;html=1;fixedSize=1;" vertex="1" parent="1">
          <mxGeometry x="294" y="500" width="120" height="60" as="geometry" />
        </mxCell>
        <mxCell id="bdSFsUya2t5fOZhDIF2p-26" style="edgeStyle=orthogonalEdgeStyle;rounded=0;orthogonalLoop=1;jettySize=auto;html=1;entryX=1;entryY=0.5;entryDx=0;entryDy=0;" edge="1" parent="1" source="bdSFsUya2t5fOZhDIF2p-18" target="bdSFsUya2t5fOZhDIF2p-23">
          <mxGeometry relative="1" as="geometry" />
        </mxCell>
        <mxCell id="bdSFsUya2t5fOZhDIF2p-18" value="Escrever N2" style="shape=parallelogram;perimeter=parallelogramPerimeter;whiteSpace=wrap;html=1;fixedSize=1;" vertex="1" parent="1">
          <mxGeometry x="560" y="490" width="120" height="60" as="geometry" />
        </mxCell>
        <mxCell id="bdSFsUya2t5fOZhDIF2p-27" style="edgeStyle=orthogonalEdgeStyle;rounded=0;orthogonalLoop=1;jettySize=auto;html=1;" edge="1" parent="1" source="bdSFsUya2t5fOZhDIF2p-23" target="bdSFsUya2t5fOZhDIF2p-2">
          <mxGeometry relative="1" as="geometry" />
        </mxCell>
        <mxCell id="bdSFsUya2t5fOZhDIF2p-23" value="" style="ellipse;whiteSpace=wrap;html=1;aspect=fixed;fillColor=#0050ef;fontColor=#ffffff;strokeColor=#001DBC;" vertex="1" parent="1">
          <mxGeometry x="350" y="630" width="20" height="20" as="geometry" />
        </mxCell>
      </root>
    </mxGraphModel>
  </diagram>
</mxfile>
